<?xml version="1.0" encoding="UTF-8" standalone="no"?>
<!-- Created with Inkscape (http://www.inkscape.org/) -->

<svg
   xmlns:dc="http://purl.org/dc/elements/1.1/"
   xmlns:cc="http://creativecommons.org/ns#"
   xmlns:rdf="http://www.w3.org/1999/02/22-rdf-syntax-ns#"
   xmlns:svg="http://www.w3.org/2000/svg"
   xmlns="http://www.w3.org/2000/svg"
   xmlns:sodipodi="http://sodipodi.sourceforge.net/DTD/sodipodi-0.dtd"
   xmlns:inkscape="http://www.inkscape.org/namespaces/inkscape"
   id="svg2"
   version="1.1"
   inkscape:version="0.91 r13725"
   xml:space="preserve"
   width="1707.9875"
   height="2331.25"
   viewBox="0 0 1707.9875 2331.25"
   sodipodi:docname="background&lt;.svg"><metadata
     id="metadata8"><rdf:RDF><cc:Work
         rdf:about=""><dc:format>image/svg+xml</dc:format><dc:type
           rdf:resource="http://purl.org/dc/dcmitype/StillImage" /><dc:title></dc:title></cc:Work></rdf:RDF></metadata><defs
     id="defs6"><clipPath
       clipPathUnits="userSpaceOnUse"
       id="clipPath20"><path
         d="m 0,1865 1366.391,0 0,-1865 L 0,0 0,1865 Z"
         id="path22"
         inkscape:connector-curvature="0" /></clipPath><clipPath
       clipPathUnits="userSpaceOnUse"
       id="clipPath52"><path
         d="m 0,0 1366.392,0 0,29.135 L 0,29.135 0,0 Z"
         id="path54"
         inkscape:connector-curvature="0" /></clipPath><linearGradient
       x1="0.056211993"
       y1="0.008813601"
       x2="1"
       y2="0"
       gradientUnits="userSpaceOnUse"
       gradientTransform="matrix(1379.2908,0,0,-1379.2908,-7.5071278,14.567247)"
       spreadMethod="pad"
       id="linearGradient60"><stop
         style="stop-opacity:1;stop-color:#ec6f19"
         offset="0"
         id="stop62" /><stop
         style="stop-opacity:1;stop-color:#e61e25"
         offset="0.99720782"
         id="stop64" /><stop
         style="stop-opacity:1;stop-color:#e61e25"
         offset="1"
         id="stop66" /></linearGradient><clipPath
       clipPathUnits="userSpaceOnUse"
       id="clipPath88"><path
         d="m 0,1865 1366.391,0 0,-1865 L 0,0 0,1865 Z"
         id="path90"
         inkscape:connector-curvature="0" /></clipPath><clipPath
       clipPathUnits="userSpaceOnUse"
       id="clipPath394"><path
         d="m 0,1865 1366.391,0 0,-1865 L 0,0 0,1865 Z"
         id="path396"
         inkscape:connector-curvature="0" /></clipPath><clipPath
       clipPathUnits="userSpaceOnUse"
       id="clipPath418"><path
         d="m 0,1865 1366.391,0 0,-1865 L 0,0 0,1865 Z"
         id="path420"
         inkscape:connector-curvature="0" /></clipPath><clipPath
       clipPathUnits="userSpaceOnUse"
       id="clipPath436"><path
         d="m 0,1865 1366.391,0 0,-1865 L 0,0 0,1865 Z"
         id="path438"
         inkscape:connector-curvature="0" /></clipPath></defs><sodipodi:namedview
     pagecolor="#ffffff"
     bordercolor="#666666"
     borderopacity="1"
     objecttolerance="10"
     gridtolerance="10"
     guidetolerance="10"
     inkscape:pageopacity="0"
     inkscape:pageshadow="2"
     inkscape:window-width="1628"
     inkscape:window-height="919"
     id="namedview4"
     showgrid="false"
     inkscape:snap-others="true"
     inkscape:zoom="0.57266171"
     inkscape:cx="868.60331"
     inkscape:cy="368.14173"
     inkscape:window-x="392"
     inkscape:window-y="161"
     inkscape:window-maximized="0"
     inkscape:current-layer="g10" /><g
     id="g10"
     inkscape:groupmode="layer"
     inkscape:label="site_ISEE"
     transform="matrix(1.25,0,0,-1.25,0,2331.25)"><g
       id="g12"
       transform="translate(137.8854,1342.2411)"><path
         d="M 0,0 -46.486,-70.822 -90.607,0 l -47.278,0 0,-2.037 70.39,-105.473 0,-70.837 40.968,0 0,70.837 L 47.014,-2.037 47.014,0 0,0 Z"
         style="fill:#f6f6f6;fill-opacity:1;fill-rule:nonzero;stroke:none"
         id="path14"
         inkscape:connector-curvature="0" /></g><g
       id="g16"><g
         id="g18"
         clip-path="url(#clipPath20)"><g
           id="g24"
           transform="translate(288.1616,1159.5605)"><path
             d="m 0,0 c -58.831,0 -99.275,35.424 -99.275,93.514 0,58.091 40.444,93.504 99.275,93.504 58.831,0 99.276,-35.413 99.276,-93.504 C 99.276,35.424 58.831,0 0,0 m 0,151.343 c -34.931,0 -59.095,-25.478 -59.095,-57.829 0,-33.373 24.164,-57.59 59.095,-57.59 35.718,0 59.095,24.465 59.095,57.59 0,32.613 -23.377,57.829 -59.095,57.829"
             style="fill:#f6f6f6;fill-opacity:1;fill-rule:nonzero;stroke:none"
             id="path26"
             inkscape:connector-curvature="0" /></g><g
           id="g28"
           transform="translate(589.4687,1341.9922)"><path
             d="m 0,0 0,-99.626 c 0,-52.993 -30.469,-81.27 -78.797,-82.805 -48.063,-1.526 -88.772,25.226 -88.772,82.805 l 0,99.626 40.709,0 0,-99.626 c 0,-31.85 18.385,-48.407 48.328,-47.133 27.841,1.788 37.817,20.381 37.817,47.133 L -40.715,0 0,0 Z"
             style="fill:#f6f6f6;fill-opacity:1;fill-rule:nonzero;stroke:none"
             id="path30"
             inkscape:connector-curvature="0" /></g><g
           id="g32"
           transform="translate(114.1401,1098.6787)"><path
             d="m 0,0 0,-92.399 c 0,-24.812 -8.98,-42.065 -34.03,-43.719 -26.939,-1.18 -43.481,14.18 -43.481,43.719 l 0,92.399 -36.629,0 0,-92.399 c 0,-53.407 36.629,-78.22 79.875,-76.803 43.481,1.418 70.893,27.65 70.893,76.803 L 36.628,0 0,0 Z M 195.427,-19.378 C 178.413,0.474 159.272,6.145 133.75,6.145 c -34.03,0 -65.223,-17.489 -65.46,-50.336 -0.472,-38.993 30.721,-47.736 65.695,-51.043 22.451,-1.89 33.557,-8.272 33.321,-22.214 0,-11.816 -13.47,-19.614 -33.083,-19.614 -16.78,0 -37.81,7.089 -50.572,23.394 L 61.674,-136.59 c 13.941,-23.158 43.717,-34.266 72.311,-34.029 35.684,0.235 69.714,16.307 69.714,53.171 0,38.283 -30.957,50.808 -63.57,53.642 -21.268,1.891 -35.682,4.728 -35.682,19.852 0,11.342 13.232,18.196 29.538,18.196 12.999,0 29.068,-4.254 38.284,-13.942 l 23.158,20.322 z"
             style="fill:#f6f6f6;fill-opacity:1;fill-rule:nonzero;stroke:none"
             id="path34"
             inkscape:connector-curvature="0" /></g><g
           id="g36"
           transform="translate(154.4312,1576.105)"><path
             d="M 0,0 -53.842,-68.538 -107.419,0 l -47.012,0 0,-178.347 40.972,0 0,124.591 54.891,-69.81 7.354,0 56.733,69.298 0,-124.079 40.972,0 L 46.491,0 0,0 Z"
             style="fill:#f6f6f6;fill-opacity:1;fill-rule:nonzero;stroke:none"
             id="path38"
             inkscape:connector-curvature="0" /></g><g
           id="g40"
           transform="translate(248.5215,1576.105)"><path
             d="m 0,0 0,-178.347 139.985,0 0,36.688 -99.804,0 0,35.924 90.613,0 0,34.911 -90.613,0 0,34.399 96.127,0 0,36.425 L 0,0 Z"
             style="fill:#f6f6f6;fill-opacity:1;fill-rule:nonzero;stroke:none"
             id="path42"
             inkscape:connector-curvature="0" /></g><g
           id="g44"
           transform="translate(1162.8418,904.3623)"><path
             d="m 0,0 -181.686,61.813 c -16.851,-6.857 -33.073,-14.91 -48.57,-24.085 L -4.305,-39.148 c 37.075,-12.612 37.589,-34.618 1.13,-48.875 l -269.614,-105.492 c -36.481,-14.272 -74.469,4.747 -84.472,42.265 l -11.481,43.105 c -26.645,-50.854 -41.801,-108.68 -41.801,-170.081 0,-10.422 0.544,-20.715 1.392,-30.914 22.397,14.83 44.918,5.103 53.804,-26.26 l 7.951,-28.109 c 8.299,-29.298 -4.218,-56.892 -28.732,-69.895 14.41,-30.842 32.994,-59.313 55.008,-84.762 14.54,33.364 52.666,49.129 87.306,35.061 l 66.995,-27.261 c 36.27,-14.758 35.669,-37.293 -1.341,-50.137 l -74.621,-25.869 c 9.177,-5.943 18.614,-11.511 28.334,-16.628 l 58.761,20.368 c 37.017,12.837 78.832,-6.284 92.938,-42.49 l 7.727,-19.831 c 3.827,-0.116 7.647,-0.29 11.502,-0.29 10.598,0 21.064,0.551 31.437,1.429 l -7.778,19.968 c -14.098,36.205 5.972,60.327 44.591,53.616 l 122.873,-21.361 c 10.8,6.603 21.202,13.779 31.226,21.426 l -155.149,26.978 c -38.641,6.705 -64.793,43.49 -58.146,81.717 l 0.152,0.863 c 6.647,38.227 39.569,53.116 73.106,33.059 l 179.853,-107.427 c 5.833,5.958 11.437,12.126 16.859,18.454 L 53.746,-407.956 c -33.573,20.063 -31.965,49.897 3.574,66.308 l 261.67,120.873 c -1.239,7.892 -2.798,15.677 -4.53,23.397 L 53.985,-317.692 c -35.516,-16.432 -50.245,-1.465 -32.711,33.225 l 68.823,136.145 c 17.548,34.69 63.328,56.725 101.744,48.969 l 95.214,-19.258 c -5.444,11.257 -11.475,22.173 -18.005,32.748 l -62.589,12.655 c -38.431,7.777 -41.258,28.529 -6.314,46.143 l 16.099,8.111 C 206.135,-8.821 195.363,0.652 184.121,9.561 L 183.396,9.198 C 148.445,-8.423 114.371,8.444 107.674,46.664 l -1.82,10.351 C 87.907,65.017 69.236,71.686 49.905,76.759 l 5.306,-30.21 C 61.923,8.335 37.075,-12.612 0,0 m -315.981,-359.146 -7.952,28.109 c -10.583,37.35 10.619,56.298 47.114,42.105 l 136.921,-53.289 c 36.487,-14.199 35.349,-34.016 -2.538,-44.026 l -85.443,-22.593 c -37.887,-10.031 -77.52,12.344 -88.102,49.694 m 239.012,-93.814 -0.145,-0.862 c -6.647,-38.236 -41.765,-57.444 -78.035,-42.694 l -66.989,27.247 c -36.27,14.736 -34.959,35.002 2.928,45.019 l 85.45,22.586 c 37.873,10.01 63.445,-13.062 56.791,-51.296 m 119.14,303.689 -68.83,-136.13 c -17.519,-34.698 -61.734,-51.471 -98.214,-37.264 l -136.92,53.282 c -36.503,14.207 -36.524,37.495 -0.051,51.768 L 7.749,-112.131 c 36.48,14.272 51.978,-2.435 34.422,-37.14"
             style="fill:#f6f6f6;fill-opacity:1;fill-rule:nonzero;stroke:none"
             id="path46"
             inkscape:connector-curvature="0" /></g></g></g></g></svg>