<?xml version="1.0" encoding="UTF-8" standalone="no"?>
<!-- Created with Inkscape (http://www.inkscape.org/) -->

<svg
   xmlns:dc="http://purl.org/dc/elements/1.1/"
   xmlns:cc="http://creativecommons.org/ns#"
   xmlns:rdf="http://www.w3.org/1999/02/22-rdf-syntax-ns#"
   xmlns:svg="http://www.w3.org/2000/svg"
   xmlns="http://www.w3.org/2000/svg"
   xmlns:sodipodi="http://sodipodi.sourceforge.net/DTD/sodipodi-0.dtd"
   xmlns:inkscape="http://www.inkscape.org/namespaces/inkscape"
   id="svg2"
   version="1.1"
   inkscape:version="0.91 r13725"
   xml:space="preserve"
   width="283.78201"
   height="92.986252"
   viewBox="0 0 283.782 92.986252"
   sodipodi:docname="logo.svg"><metadata
     id="metadata8"><rdf:RDF><cc:Work
         rdf:about=""><dc:format>image/svg+xml</dc:format><dc:type
           rdf:resource="http://purl.org/dc/dcmitype/StillImage" /><dc:title></dc:title></cc:Work></rdf:RDF></metadata><defs
     id="defs6" /><sodipodi:namedview
     pagecolor="#ffffff"
     bordercolor="#666666"
     borderopacity="1"
     objecttolerance="10"
     gridtolerance="10"
     guidetolerance="10"
     inkscape:pageopacity="0"
     inkscape:pageshadow="2"
     inkscape:window-width="1628"
     inkscape:window-height="919"
     id="namedview4"
     showgrid="false"
     inkscape:snap-others="true"
     inkscape:zoom="2.2906468"
     inkscape:cx="310.8623"
     inkscape:cy="-19.466591"
     inkscape:window-x="292"
     inkscape:window-y="128"
     inkscape:window-maximized="0"
     inkscape:current-layer="g10"
     fit-margin-top="0"
     fit-margin-left="0"
     fit-margin-right="0"
     fit-margin-bottom="0" /><g
     id="g10"
     inkscape:groupmode="layer"
     inkscape:label="site_ISEE"
     transform="matrix(1.25,0,0,-1.25,-10.429875,2319.223)"><g
       id="g6347"
       transform="translate(-1035.2331,27.658898)"><path
         inkscape:connector-curvature="0"
         id="path78"
         style="fill:#f46f36;fill-opacity:1;fill-rule:nonzero;stroke:none"
         d="m 1116.652,1783.142 0.827,0 0,6.656 -0.827,0 0,-6.656 z" /><g
         transform="translate(1121.0859,1789.7988)"
         id="g80"><path
           inkscape:connector-curvature="0"
           id="path82"
           style="fill:#f46f36;fill-opacity:1;fill-rule:nonzero;stroke:none"
           d="m 0,0 4.08,-5.097 0,5.097 0.817,0 0,-6.656 -0.57,0 -4.09,5.077 0,-5.077 -0.817,0 L -0.58,0 0,0 Z" /></g><g
         transform="translate(1131.3369,1789.1997)"
         id="g92"><path
           inkscape:connector-curvature="0"
           id="path94"
           style="fill:#f46f36;fill-opacity:1;fill-rule:nonzero;stroke:none"
           d="m 0,0 c -0.847,0 -1.75,-0.333 -1.75,-1.141 0,-0.723 0.827,-0.932 1.807,-1.094 C 1.388,-2.444 2.7,-2.71 2.7,-4.213 2.691,-5.706 1.264,-6.19 -0.01,-6.19 c -1.179,0 -2.301,0.427 -2.815,1.54 l 0.685,0.399 C -1.712,-5.04 -0.818,-5.42 0,-5.42 c 0.808,0 1.882,0.256 1.882,1.235 0.01,0.828 -0.922,1.065 -1.92,1.218 -1.284,0.199 -2.53,0.494 -2.53,1.844 -0.019,1.39 1.398,1.865 2.548,1.865 0.99,0 1.931,-0.2 2.521,-1.208 L 1.873,-0.856 C 1.512,-0.276 0.741,-0.01 0,0" /></g><g
         transform="translate(1135.6152,1789.0571)"
         id="g96"><path
           inkscape:connector-curvature="0"
           id="path98"
           style="fill:#f46f36;fill-opacity:1;fill-rule:nonzero;stroke:none"
           d="m 0,0 0,0.741 5.363,0 0,-0.741 -2.272,0 0,-5.915 -0.819,0 L 2.272,0 0,0 Z" /></g><path
         inkscape:connector-curvature="0"
         id="path100"
         style="fill:#f46f36;fill-opacity:1;fill-rule:nonzero;stroke:none"
         d="m 1143.257,1789.799 0.828,0 0,-6.656 -0.828,0 0,6.656 z" /><g
         transform="translate(1146.3496,1789.0571)"
         id="g102"><path
           inkscape:connector-curvature="0"
           id="path104"
           style="fill:#f46f36;fill-opacity:1;fill-rule:nonzero;stroke:none"
           d="m 0,0 0,0.741 5.363,0 0,-0.741 -2.273,0 0,-5.915 -0.818,0 L 2.272,0 0,0 Z" /></g><g
         transform="translate(1159.1768,1789.7891)"
         id="g106"><path
           inkscape:connector-curvature="0"
           id="path108"
           style="fill:#f46f36;fill-opacity:1;fill-rule:nonzero;stroke:none"
           d="m 0,0 0,-3.994 c 0,-1.844 -1.246,-2.777 -2.7,-2.777 -1.417,0 -2.729,0.913 -2.729,2.777 l 0,3.994 0.818,0 0,-3.994 c 0,-1.322 0.883,-2.016 1.911,-2.016 1.026,0 1.883,0.723 1.883,2.026 l 0,3.994 0.808,0 L 0,0 Z" /></g><g
         transform="translate(1161.2119,1789.0571)"
         id="g110"><path
           inkscape:connector-curvature="0"
           id="path112"
           style="fill:#f46f36;fill-opacity:1;fill-rule:nonzero;stroke:none"
           d="m 0,0 0,0.741 5.363,0 0,-0.741 -2.273,0 0,-5.915 -0.818,0 L 2.272,0 0,0 Z" /></g><g
         transform="translate(1168.8535,1789.7988)"
         id="g114"><path
           inkscape:connector-curvature="0"
           id="path116"
           style="fill:#f46f36;fill-opacity:1;fill-rule:nonzero;stroke:none"
           d="m 0,0 4.679,0 0,-0.761 -3.861,0 0,-2.083 3.699,0 0,-0.77 -3.699,0 0,-2.254 4.013,0 0,-0.788 L 0,-6.656 0,0 Z" /></g><g
         transform="translate(1186.5215,1786.4512)"
         id="g118"><path
           inkscape:connector-curvature="0"
           id="path120"
           style="fill:#f46f36;fill-opacity:1;fill-rule:nonzero;stroke:none"
           d="m 0,0 c -0.01,-1.74 -1.094,-3.442 -3.377,-3.442 -2.281,0 -3.385,1.692 -3.385,3.442 0,1.931 1.293,3.461 3.395,3.461 C -1.113,3.452 0.01,1.76 0,0 M -3.367,2.701 C -5.06,2.701 -5.935,1.455 -5.935,0 c 0,-1.35 0.819,-2.663 2.568,-2.663 1.75,0 2.539,1.351 2.539,2.663 0.01,1.351 -0.799,2.682 -2.539,2.701" /></g><g
         transform="translate(1193.7949,1789.7988)"
         id="g122"><path
           inkscape:connector-curvature="0"
           id="path124"
           style="fill:#f46f36;fill-opacity:1;fill-rule:nonzero;stroke:none"
           d="m 0,0 0,-0.79 -3.794,0 0,-2.32 3.632,0 0,-0.77 -3.632,0 0,-2.786 -0.827,0 0,6.666 L 0,0 Z" /></g><g
         transform="translate(1202.5625,1789.1997)"
         id="g126"><path
           inkscape:connector-curvature="0"
           id="path128"
           style="fill:#f46f36;fill-opacity:1;fill-rule:nonzero;stroke:none"
           d="m 0,0 c -0.847,0 -1.75,-0.333 -1.75,-1.141 0,-0.723 0.827,-0.932 1.807,-1.094 C 1.388,-2.444 2.7,-2.71 2.7,-4.213 2.69,-5.706 1.265,-6.19 -0.01,-6.19 c -1.179,0 -2.301,0.427 -2.814,1.54 l 0.684,0.399 C -1.712,-5.04 -0.817,-5.42 0,-5.42 c 0.808,0 1.883,0.256 1.883,1.235 0.01,0.828 -0.923,1.065 -1.921,1.218 -1.284,0.199 -2.529,0.494 -2.529,1.844 -0.02,1.39 1.397,1.865 2.547,1.865 0.99,0 1.931,-0.2 2.521,-1.208 L 1.873,-0.856 C 1.512,-0.276 0.741,-0.01 0,0" /></g><g
         transform="translate(1213.8877,1786.4512)"
         id="g130"><path
           inkscape:connector-curvature="0"
           id="path132"
           style="fill:#f46f36;fill-opacity:1;fill-rule:nonzero;stroke:none"
           d="m 0,0 c -0.01,-1.74 -1.094,-3.442 -3.377,-3.442 -2.281,0 -3.385,1.692 -3.385,3.442 0,1.931 1.294,3.461 3.395,3.461 C -1.113,3.452 0.01,1.76 0,0 M -3.367,2.701 C -5.06,2.701 -5.935,1.455 -5.935,0 c 0,-1.35 0.819,-2.663 2.568,-2.663 1.75,0 2.539,1.351 2.539,2.663 0.01,1.351 -0.799,2.682 -2.539,2.701" /></g><g
         transform="translate(1219.2686,1783.0376)"
         id="g134"><path
           inkscape:connector-curvature="0"
           id="path136"
           style="fill:#f46f36;fill-opacity:1;fill-rule:nonzero;stroke:none"
           d="M 0,0 C -2.349,0 -3.461,1.626 -3.471,3.394 -3.489,5.154 -2.34,6.865 0,6.865 0.885,6.865 1.76,6.532 2.435,5.867 L 1.864,5.335 C 1.351,5.838 0.676,6.077 0,6.077 -1.787,6.077 -2.653,4.783 -2.644,3.404 -2.624,2.054 -1.797,0.79 0,0.79 c 0.676,0 1.389,0.265 1.893,0.77 L 2.473,0.989 C 1.798,0.323 0.913,0 0,0" /></g><path
         inkscape:connector-curvature="0"
         id="path138"
         style="fill:#f46f36;fill-opacity:1;fill-rule:nonzero;stroke:none"
         d="m 1224.127,1789.799 0.827,0 0,-6.656 -0.827,0 0,6.656 z" /><g
         transform="translate(1230.8877,1789.7988)"
         id="g140"><path
           inkscape:connector-curvature="0"
           id="path142"
           style="fill:#f46f36;fill-opacity:1;fill-rule:nonzero;stroke:none"
           d="m 0,0 2.985,-6.656 -0.893,0 -0.656,1.463 -3.803,0 -0.648,-1.463 -0.903,0 L -0.932,0 0,0 Z m -0.466,-0.837 -1.579,-3.595 3.157,0 -1.578,3.595 z" /></g><g
         transform="translate(1236.7168,1783.9126)"
         id="g144"><path
           inkscape:connector-curvature="0"
           id="path146"
           style="fill:#f46f36;fill-opacity:1;fill-rule:nonzero;stroke:none"
           d="m 0,0 3.622,0 0,-0.77 -4.45,0 0,6.656 L 0,5.886 0,0 Z" /></g><g
         transform="translate(1249.7246,1789.7988)"
         id="g148"><path
           inkscape:connector-curvature="0"
           id="path150"
           style="fill:#f46f36;fill-opacity:1;fill-rule:nonzero;stroke:none"
           d="m 0,0 2.985,-6.656 -0.893,0 -0.656,1.463 -3.804,0 -0.647,-1.463 -0.903,0 L -0.933,0 0,0 Z m -0.467,-0.837 -1.578,-3.595 3.157,0 -1.579,3.595 z" /></g><g
         transform="translate(1255.1152,1789.7988)"
         id="g152"><path
           inkscape:connector-curvature="0"
           id="path154"
           style="fill:#f46f36;fill-opacity:1;fill-rule:nonzero;stroke:none"
           d="m 0,0 4.08,-5.097 0,5.097 0.817,0 0,-6.656 -0.57,0 -4.09,5.077 0,-5.077 -0.816,0 0,6.656 L 0,0 Z" /></g><g
         transform="translate(1263.0547,1789.8081)"
         id="g156"><path
           inkscape:connector-curvature="0"
           id="path158"
           style="fill:#f46f36;fill-opacity:1;fill-rule:nonzero;stroke:none"
           d="m 0,0 2.425,0 c 2.262,0 3.346,-1.617 3.346,-3.262 0,-1.702 -1.017,-3.404 -3.346,-3.404 L 0,-6.666 0,-0.009 0,0 Z m 4.944,-3.252 c 0,1.236 -0.817,2.453 -2.519,2.453 l -1.598,0 0,-5.039 1.598,0 c 1.768,0 2.519,1.312 2.519,2.586" /></g><g
         transform="translate(1121.7686,1772.0483)"
         id="g160"><path
           inkscape:connector-curvature="0"
           id="path162"
           style="fill:#f46f36;fill-opacity:1;fill-rule:nonzero;stroke:none"
           d="m 0,0 -5.326,0 0,6.657 5.192,0 0,-1.579 -3.338,0 0,-0.951 3.148,0 0,-1.531 -3.148,0 0,-1.008 L 0,1.588 0,0 Z" /></g><g
         transform="translate(1130.4619,1776.0137)"
         id="g164"><path
           inkscape:connector-curvature="0"
           id="path166"
           style="fill:#f46f36;fill-opacity:1;fill-rule:nonzero;stroke:none"
           d="m 0,0 -1.702,-2.016 -0.333,0 -1.664,2.007 0,-3.956 -1.864,0 0,6.657 1.968,0 1.75,-2.254 1.75,2.254 1.959,0 0,-6.657 L 0,-3.965 0,0 Z" /></g><g
         transform="translate(1138.6582,1771.8867)"
         id="g168"><path
           inkscape:connector-curvature="0"
           id="path170"
           style="fill:#f46f36;fill-opacity:1;fill-rule:nonzero;stroke:none"
           d="m 0,0 c -2.178,0 -3.699,1.265 -3.699,3.49 0,2.187 1.521,3.489 3.699,3.489 2.188,0 3.699,-1.273 3.699,-3.489 C 3.699,1.265 2.188,0 0,0 m 0,5.373 c -1.074,0 -1.816,-0.78 -1.816,-1.883 0,-1.113 0.751,-1.883 1.816,-1.883 1.103,0 1.816,0.78 1.816,1.883 0,1.141 -0.713,1.883 -1.816,1.883" /></g><g
         transform="translate(1146.3027,1777.1553)"
         id="g172"><path
           inkscape:connector-curvature="0"
           id="path174"
           style="fill:#f46f36;fill-opacity:1;fill-rule:nonzero;stroke:none"
           d="m 0,0 -1.939,0 0,1.55 5.762,0 0,-1.55 -1.949,0 0,-5.107 L 0,-5.107 0,0 Z" /></g><path
         inkscape:connector-curvature="0"
         id="path176"
         style="fill:#f46f36;fill-opacity:1;fill-rule:nonzero;stroke:none"
         d="m 1152.788,1778.705 1.873,0 0,-6.657 -1.873,0 0,6.657 z" /><g
         transform="translate(1160.9941,1771.8867)"
         id="g178"><path
           inkscape:connector-curvature="0"
           id="path180"
           style="fill:#f46f36;fill-opacity:1;fill-rule:nonzero;stroke:none"
           d="m 0,0 c -2.178,0 -3.699,1.265 -3.699,3.49 0,2.187 1.521,3.489 3.699,3.489 2.188,0 3.699,-1.273 3.699,-3.489 C 3.699,1.265 2.188,0 0,0 m 0,5.373 c -1.074,0 -1.816,-0.78 -1.816,-1.883 0,-1.113 0.752,-1.883 1.816,-1.883 1.104,0 1.816,0.78 1.816,1.883 0,1.141 -0.712,1.883 -1.816,1.883" /></g><g
         transform="translate(1171.6436,1775.063)"
         id="g182"><path
           inkscape:connector-curvature="0"
           id="path184"
           style="fill:#f46f36;fill-opacity:1;fill-rule:nonzero;stroke:none"
           d="m 0,0 c -0.048,0.798 -0.048,1.103 -0.058,1.36 l 0,2.282 1.894,0 0,-6.657 -1.598,0 -2.777,3.586 0.028,-1.455 0,-2.131 -1.901,0 0,6.657 1.598,0 L 0,0 Z" /></g><g
         transform="translate(1181.0771,1773.1421)"
         id="g186"><path
           inkscape:connector-curvature="0"
           id="path188"
           style="fill:#f46f36;fill-opacity:1;fill-rule:nonzero;stroke:none"
           d="m 0,0 -2.978,0 -0.437,-1.094 -1.996,0 2.986,6.657 1.902,0 2.976,-6.657 -2.016,0 L 0,0 Z m -1.484,3.699 -0.856,-2.12 1.702,0 -0.846,2.12 z" /></g><g
         transform="translate(1187.6943,1778.7051)"
         id="g190"><path
           inkscape:connector-curvature="0"
           id="path192"
           style="fill:#f46f36;fill-opacity:1;fill-rule:nonzero;stroke:none"
           d="m 0,0 0,-5.059 3.187,0 0,-1.598 -5.07,0 0,6.657 L 0,0 Z" /></g><g
         transform="translate(1203.2607,1772.0483)"
         id="g194"><path
           inkscape:connector-curvature="0"
           id="path196"
           style="fill:#f46f36;fill-opacity:1;fill-rule:nonzero;stroke:none"
           d="m 0,0 -5.325,0 0,6.657 5.192,0 0,-1.579 -3.339,0 0,-0.951 3.149,0 0,-1.531 -3.149,0 0,-1.008 L 0,1.588 0,0 Z" /></g><g
         transform="translate(1209.2441,1778.7051)"
         id="g198"><path
           inkscape:connector-curvature="0"
           id="path200"
           style="fill:#f46f36;fill-opacity:1;fill-rule:nonzero;stroke:none"
           d="M 0,0 C 2.349,0 3.48,-1.446 3.48,-3.281 3.48,-5.116 2.387,-6.657 0,-6.657 l -2.853,0 0,6.657 L 0,0 Z m -0.988,-5.068 0.988,0 c 1.198,0 1.617,0.893 1.617,1.806 0,0.913 -0.467,1.693 -1.617,1.693 l -0.988,0 0,-3.499 z" /></g><g
         transform="translate(1221.6533,1778.6953)"
         id="g202"><path
           inkscape:connector-curvature="0"
           id="path204"
           style="fill:#f46f36;fill-opacity:1;fill-rule:nonzero;stroke:none"
           d="m 0,0 0,-3.718 c 0.01,-1.969 -1.188,-3.072 -3.138,-3.072 -1.95,0 -3.138,1.056 -3.138,3.091 l 0,3.699 1.874,0 0,-3.699 c 0,-1.046 0.503,-1.483 1.264,-1.483 0.761,0 1.264,0.456 1.264,1.464 L -1.874,0 0,0 Z" /></g><g
         transform="translate(1230.6104,1772.9136)"
         id="g206"><path
           inkscape:connector-curvature="0"
           id="path208"
           style="fill:#f46f36;fill-opacity:1;fill-rule:nonzero;stroke:none"
           d="m 0,0 c -0.751,-0.741 -1.663,-1.037 -2.672,-1.037 -2.615,0 -3.632,1.646 -3.641,3.453 -0.01,1.712 1.14,3.527 3.641,3.527 0.961,0 1.826,-0.332 2.577,-1.065 l -1.16,-1.14 c -0.475,0.456 -0.971,0.579 -1.417,0.579 -1.283,0 -1.788,-1.046 -1.778,-1.911 0.01,-0.865 0.466,-1.845 1.778,-1.845 0.446,0 1.094,0.19 1.569,0.676 L 0,0 Z" /></g><g
         transform="translate(1237.7227,1773.1421)"
         id="g210"><path
           inkscape:connector-curvature="0"
           id="path212"
           style="fill:#f46f36;fill-opacity:1;fill-rule:nonzero;stroke:none"
           d="m 0,0 -2.977,0 -0.436,-1.094 -1.997,0 2.985,6.657 1.903,0 2.975,-6.657 -2.016,0 L 0,0 Z m -1.483,3.699 -0.856,-2.12 1.702,0 -0.846,2.12 z" /></g><g
         transform="translate(1243.3896,1777.1553)"
         id="g214"><path
           inkscape:connector-curvature="0"
           id="path216"
           style="fill:#f46f36;fill-opacity:1;fill-rule:nonzero;stroke:none"
           d="m 0,0 -1.939,0 0,1.55 5.762,0 0,-1.55 -1.949,0 0,-5.107 L 0,-5.107 0,0 Z" /></g><path
         inkscape:connector-curvature="0"
         id="path218"
         style="fill:#f46f36;fill-opacity:1;fill-rule:nonzero;stroke:none"
         d="m 1249.911,1778.705 1.873,0 0,-6.657 -1.873,0 0,6.657 z" /><g
         transform="translate(1258.2119,1771.8867)"
         id="g220"><path
           inkscape:connector-curvature="0"
           id="path222"
           style="fill:#f46f36;fill-opacity:1;fill-rule:nonzero;stroke:none"
           d="m 0,0 c -2.178,0 -3.698,1.265 -3.698,3.49 0,2.187 1.52,3.489 3.698,3.489 2.188,0 3.699,-1.273 3.699,-3.489 C 3.699,1.265 2.188,0 0,0 m 0,5.373 c -1.074,0 -1.816,-0.78 -1.816,-1.883 0,-1.113 0.752,-1.883 1.816,-1.883 1.104,0 1.816,0.78 1.816,1.883 0,1.141 -0.712,1.883 -1.816,1.883" /></g><g
         transform="translate(1268.7666,1775.063)"
         id="g224"><path
           inkscape:connector-curvature="0"
           id="path226"
           style="fill:#f46f36;fill-opacity:1;fill-rule:nonzero;stroke:none"
           d="m 0,0 c -0.048,0.798 -0.048,1.103 -0.057,1.36 l 0,2.282 1.893,0 0,-6.657 -1.599,0 -2.776,3.586 0.029,-1.455 0,-2.131 -1.902,0 0,6.657 1.598,0 L 0,0 Z" /></g><g
         transform="translate(1085.875,1819.8105)"
         id="g228"><path
           inkscape:connector-curvature="0"
           id="path230"
           style="fill:#f46f36;fill-opacity:1;fill-rule:nonzero;stroke:none"
           d="M 0,0 -18.719,6.369 C -20.455,5.662 -22.127,4.833 -23.724,3.887 L -0.443,-4.034 C 3.376,-5.333 3.43,-7.6 -0.327,-9.069 l -27.778,-10.869 c -3.759,-1.471 -7.673,0.489 -8.704,4.355 l -1.182,4.441 c -2.745,-5.24 -4.307,-11.198 -4.307,-17.524 0,-1.074 0.056,-2.134 0.143,-3.185 2.307,1.528 4.628,0.526 5.544,-2.706 l 0.819,-2.896 c 0.854,-3.018 -0.435,-5.861 -2.961,-7.201 1.485,-3.178 3.399,-6.111 5.668,-8.733 1.498,3.437 5.426,5.062 8.995,3.612 l 6.903,-2.808 c 3.737,-1.521 3.674,-3.843 -0.138,-5.166 l -7.689,-2.666 c 0.946,-0.612 1.918,-1.185 2.919,-1.712 l 6.055,2.098 c 3.813,1.322 8.122,-0.647 9.575,-4.378 l 0.796,-2.043 c 0.395,-0.012 0.788,-0.03 1.186,-0.03 1.091,0 2.17,0.057 3.238,0.147 l -0.801,2.058 c -1.453,3.73 0.615,6.215 4.594,5.524 l 12.66,-2.201 c 1.112,0.681 2.185,1.42 3.217,2.207 l -15.986,2.78 c -3.98,0.691 -6.674,4.481 -5.99,8.42 l 0.016,0.088 c 0.684,3.939 4.077,5.473 7.532,3.406 l 18.53,-11.068 c 0.601,0.614 1.179,1.249 1.738,1.902 L 5.538,-42.032 c -3.46,2.067 -3.294,5.141 0.368,6.832 l 26.96,12.453 c -0.128,0.813 -0.289,1.616 -0.467,2.411 L 5.562,-32.732 c -3.659,-1.693 -5.176,-0.151 -3.37,3.423 l 7.091,14.027 c 1.808,3.574 6.525,5.844 10.483,5.046 l 9.809,-1.985 c -0.56,1.16 -1.181,2.285 -1.854,3.374 l -6.45,1.304 c -3.959,0.802 -4.25,2.939 -0.65,4.754 l 1.659,0.836 c -1.042,1.044 -2.151,2.02 -3.309,2.938 L 18.896,0.948 C 15.295,-0.868 11.784,0.87 11.094,4.808 L 10.906,5.874 C 9.058,6.699 7.134,7.386 5.142,7.909 L 5.688,4.796 C 6.38,0.859 3.82,-1.299 0,0 m -32.556,-37.003 -0.819,2.896 c -1.09,3.848 1.094,5.8 4.854,4.338 l 14.107,-5.49 c 3.76,-1.463 3.643,-3.505 -0.261,-4.536 l -8.804,-2.328 c -3.903,-1.034 -7.986,1.272 -9.077,5.12 m 24.626,-9.666 -0.015,-0.089 c -0.685,-3.939 -4.303,-5.918 -8.04,-4.398 l -6.902,2.807 c -3.737,1.518 -3.601,3.606 0.302,4.638 l 8.804,2.327 c 3.902,1.031 6.537,-1.345 5.851,-5.285 m 12.275,31.29 -7.091,-14.026 c -1.806,-3.575 -6.361,-5.303 -10.119,-3.84 l -14.108,5.49 c -3.76,1.464 -3.762,3.863 -0.005,5.334 l 27.777,10.868 c 3.758,1.47 5.354,-0.251 3.546,-3.826" /></g></g></g></svg>